<svg width="19" height="19" viewBox="0 0 19 19" fill="none" xmlns="http://www.w3.org/2000/svg">
<g clip-path="url(#clip0)">
<path d="M16.4309 19C16.04 19 15.6571 18.8568 15.3489 18.5809L13.499 16.9529C13.1914 16.6823 13.1614 16.2135 13.4321 15.9059C13.7028 15.5982 14.1716 15.5683 14.4792 15.839L16.3319 17.4693C16.334 17.4712 16.3361 17.473 16.3381 17.4748C16.3558 17.4907 16.4097 17.5393 16.4977 17.5001C16.5857 17.4609 16.5857 17.3884 16.5857 17.3646V4.4514C16.5857 2.81507 15.2545 1.4838 13.6181 1.4838H5.38304C3.74671 1.4838 2.41544 2.81507 2.41544 4.4514V12.6865C2.41544 14.3228 3.74671 15.6541 5.38304 15.6541H11.0957C12.08 15.6933 12.0793 17.0991 11.0957 17.1379H5.38304C2.92854 17.1379 0.931641 15.141 0.931641 12.6865V4.4514C0.931641 1.9969 2.92854 0 5.38304 0H13.6181C16.0726 0 18.0695 1.9969 18.0695 4.4514V17.3646C18.0695 18.0183 17.6986 18.5896 17.1014 18.8556C16.8837 18.9525 16.656 19 16.4309 19ZM13.0148 9.7978C12.6691 9.57771 12.2106 9.67969 11.9906 10.0254C10.6427 11.9616 8.30769 11.8888 6.97346 10.0254C6.75348 9.67972 6.29495 9.57775 5.94926 9.7978C5.60357 10.0178 5.50167 10.4763 5.72165 10.822C5.77684 10.9087 7.13756 12.9462 9.50056 12.9462C11.8635 12.9462 13.1872 10.9087 13.2424 10.822C13.4624 10.4763 13.3605 10.0178 13.0148 9.7978ZM12.394 7.86415C11.9842 7.86415 11.6521 7.532 11.6521 7.12224V5.08202C11.6912 4.09766 13.097 4.09841 13.1359 5.08202V7.12224C13.1359 7.532 12.8037 7.86415 12.394 7.86415ZM7.38614 7.12224V5.08202C7.34697 4.09766 5.94118 4.09841 5.90234 5.08202V7.12224C5.90234 7.532 6.23449 7.86415 6.64424 7.86415C7.05399 7.86415 7.38614 7.532 7.38614 7.12224Z" fill="white"/>
</g>
<defs>
<clipPath id="clip0">
<rect width="19" height="19" fill="white"/>
</clipPath>
</defs>
</svg>
