<svg width="14" height="14" viewBox="0 0 14 14" fill="none" xmlns="http://www.w3.org/2000/svg">
<path d="M7 11.0352C7.37754 11.0352 7.68359 10.7291 7.68359 10.3516C7.68359 9.97402 7.37754 9.66797 7 9.66797C6.62246 9.66797 6.31641 9.97402 6.31641 10.3516C6.31641 10.7291 6.62246 11.0352 7 11.0352Z" fill="#FF9800"/>
<path d="M7 0C3.1313 0 0 3.13078 0 7C0 10.8687 3.13078 14 7 14C10.8687 14 14 10.8692 14 7C14 3.1313 10.8692 0 7 0ZM7 12.9062C3.73579 12.9062 1.09375 10.2647 1.09375 7C1.09375 3.73579 3.73535 1.09375 7 1.09375C10.2642 1.09375 12.9062 3.73535 12.9062 7C12.9062 10.2642 10.2647 12.9062 7 12.9062Z" fill="#FF9800"/>
<path d="M7 3.51172C5.79381 3.51172 4.8125 4.49303 4.8125 5.69922C4.8125 6.00126 5.05734 6.24609 5.35938 6.24609C5.66141 6.24609 5.90625 6.00126 5.90625 5.69922C5.90625 5.09613 6.39691 4.60547 7 4.60547C7.60309 4.60547 8.09375 5.09613 8.09375 5.69922C8.09375 6.30231 7.60309 6.79297 7 6.79297C6.69796 6.79297 6.45312 7.0378 6.45312 7.33984V8.70703C6.45312 9.00907 6.69796 9.25391 7 9.25391C7.30204 9.25391 7.54688 9.00907 7.54688 8.70703V7.81751C8.4893 7.57407 9.1875 6.71665 9.1875 5.69922C9.1875 4.49303 8.20619 3.51172 7 3.51172Z" fill="#FF9800"/>
</svg>
