<svg width="16" height="16" viewBox="0 0 16 16" fill="none" xmlns="http://www.w3.org/2000/svg">
<g clip-path="url(#clip0)">
<path d="M9.36704 3.80454L11.2524 1.91918C12.034 1.13756 13.2998 1.13756 14.0808 1.91903C14.8619 2.70016 14.8619 3.96607 14.0809 4.74705L10.3096 8.51841C9.5286 9.29942 8.26269 9.29942 7.48172 8.51841C7.22137 8.25807 6.79924 8.25807 6.5389 8.51841C6.27855 8.77876 6.27855 9.20088 6.5389 9.46123C7.84059 10.7629 9.9507 10.7629 11.2524 9.46123L15.0237 5.68989C16.3254 4.3882 16.3254 2.27809 15.0237 0.976398C13.7222 -0.325984 11.6119 -0.325984 10.3095 0.976398L8.42419 2.86175C8.16385 3.1221 8.16385 3.54423 8.42419 3.80457C8.68454 4.06492 9.10669 4.06489 9.36704 3.80454Z" fill="#FF9800"/>
<path d="M0.976424 15.0237C2.27812 16.3254 4.38891 16.3254 5.69061 15.0237L7.95262 12.7617C8.21297 12.5014 8.21297 12.0792 7.95262 11.8189C7.69228 11.5586 7.27015 11.5586 7.0098 11.8189L4.74779 14.0809C3.96682 14.8619 2.70025 14.8619 1.91924 14.0809C1.13827 13.2999 1.13827 12.034 1.91924 11.2531L6.06727 7.105C6.84827 6.32399 8.11415 6.32399 8.89513 7.105C9.15547 7.36534 9.5776 7.36534 9.83794 7.105C10.0983 6.84465 10.0983 6.42252 9.83794 6.16218C8.53625 4.86048 6.42614 4.86048 5.12445 6.16218L0.976424 10.3102C-0.325272 11.6119 -0.325272 13.722 0.976424 15.0237Z" fill="#FF9800"/>
</g>
<defs>
<clipPath id="clip0">
<rect width="16" height="16" fill="white" transform="translate(16 16) rotate(-180)"/>
</clipPath>
</defs>
</svg>
