<svg width="16" height="16" viewBox="0 0 16 16" fill="none" xmlns="http://www.w3.org/2000/svg">
<path d="M14 0H13V1H14C14.5523 1 15 1.44772 15 2V14C15 14.5523 14.5523 15 14 15H2C1.44772 15 1 14.5523 1 14V2C1 1.44772 1.44772 1 2 1H8V0H2C0.895437 0 0 0.895437 0 2V14C0 15.1046 0.895437 16 2 16H14C15.1046 16 16 15.1046 16 14V2C16 0.895437 15.1046 0 14 0Z" fill="white"/>
<path d="M12 0H11V1H12V0Z" fill="white"/>
<path d="M10 0H9V1H10V0Z" fill="white"/>
<path d="M5.822 4H3.5V5H4.5V11H3.5V12H5.5V5.708L8 11.2085L10.5 5.708V12H12.5V11H11.5V5H12.5V4H10.178L8 8.7915L5.822 4Z" fill="white"/>
</svg>
