<svg width="40" height="40" viewBox="0 0 40 40" fill="none" xmlns="http://www.w3.org/2000/svg">
<path d="M20.261 0.464844C9.40988 0.464844 0.613281 9.26145 0.613281 20.1125C0.613281 30.9636 9.40988 39.7602 20.261 39.7602C31.1121 39.7602 39.9087 30.9636 39.9087 20.1125C39.8963 9.26658 31.1069 0.477264 20.261 0.464844ZM29.9013 17.9514C29.1706 18.5968 28.3269 19.1014 27.4125 19.4388C26.7654 19.6483 26.1735 19.9999 25.6801 20.4684C25.0253 22.0278 25.4274 23.8314 26.6836 24.965C26.7264 25.0079 26.7667 25.0537 26.8039 25.1021C28.3843 27.127 28.2237 30.0081 26.4283 31.8451C24.4406 33.8293 21.2212 33.8293 19.2331 31.8451C17.9752 30.3353 17.5641 28.2928 18.1397 26.4139C18.2789 25.3282 17.9075 24.2387 17.1336 23.4643C16.3657 22.7242 15.301 22.3769 14.2444 22.5212C12.3655 23.096 10.3234 22.6836 8.81456 21.4252C6.82774 19.441 6.82602 16.222 8.81028 14.2356C8.81156 14.2339 8.81328 14.2326 8.81456 14.2313C10.6506 12.4346 13.533 12.274 15.5575 13.8557C16.9747 15.2562 19.0742 15.7277 20.1899 14.9769C20.6601 14.4848 21.0122 13.8925 21.2203 13.2445C21.5578 12.331 22.0615 11.4881 22.7061 10.7583C24.6929 8.77148 27.9136 8.77148 29.9004 10.7579C31.8877 12.7447 31.8877 15.9654 29.9013 17.9523V17.9514Z" fill="#2B98D6"/>
<path d="M24.2528 12.9177C23.8723 13.4062 23.5714 13.9518 23.362 14.5345C22.9803 15.6831 22.2755 16.6977 21.3329 17.457C18.6747 18.8844 15.388 18.3324 13.3419 16.1151C12.4384 15.5091 11.234 15.6146 10.4496 16.3687C9.56444 17.2527 9.56359 18.6873 10.4475 19.5726C10.4484 19.573 10.4488 19.5738 10.4496 19.5743C10.9833 20.1058 11.7434 20.1901 13.3665 19.893C13.6955 19.8334 14.0292 19.8032 14.3637 19.8032C15.9898 19.8296 17.5453 20.4723 18.716 21.6009C20.1345 23.0194 20.7924 25.029 20.4868 27.0118C20.1847 28.6312 20.269 29.3938 20.803 29.9288C21.6887 30.8127 23.1229 30.8127 24.0085 29.9288C24.7737 29.1112 24.8494 27.8656 24.1885 26.9616C22.0274 24.9116 21.5074 21.6677 22.9194 19.0448C23.6787 18.1026 24.6932 17.3987 25.8419 17.0182C26.4253 16.808 26.9713 16.5054 27.4595 16.1223C28.3442 15.2371 28.3443 13.802 27.4591 12.9172C26.5734 12.0324 25.1388 12.0329 24.254 12.9181L24.2528 12.9177Z" fill="#2B98D6"/>
</svg>
