<svg width="60" height="58" viewBox="0 0 60 58" fill="none" xmlns="http://www.w3.org/2000/svg">
<path d="M40.4159 14.6557C39.2821 13.8761 38.0624 13.22 36.7788 12.6992L35.3281 16.0366C36.3536 16.4534 37.3286 16.9778 38.2351 17.6003L40.4159 14.6557Z" fill="url(#paint0_linear)" stroke="#FFC977"/>
<path d="M45.9304 20.5937C45.2529 19.4248 44.4427 18.3323 43.515 17.3359L40.7188 19.7503C41.4611 20.551 42.11 21.428 42.6536 22.3655L45.9304 20.5937Z" fill="url(#paint1_linear)" stroke="#FFC977"/>
<path d="M43.9401 25.3123C46.266 32.9752 41.71 41.0054 33.764 43.2484C25.8181 45.4913 17.4911 41.0977 15.1653 33.4349C12.8394 25.772 17.3954 17.7417 25.3414 15.4988C27.549 14.8756 29.8756 14.7507 32.1413 15.1337L32.7887 11.5665C31.7127 11.3876 30.6228 11.2973 29.5308 11.2969C19.1774 11.3098 10.7952 19.4142 10.8086 29.3988C10.822 39.3834 19.2259 47.4668 29.5793 47.4539C39.9327 47.441 48.3148 39.3365 48.3015 29.352C48.2991 27.6417 48.0452 25.9403 47.5472 24.2988L43.9401 25.3123Z" fill="url(#paint2_linear)" stroke="#FFC977"/>
<path d="M59.06 29.3958L54.2519 23.0071L55.1058 15.156L47.629 11.9417L44.2959 4.73131L36.1548 5.55478L29.53 0.917969L22.9052 5.55478L14.7641 4.73131L11.431 11.9417L3.95422 15.156L4.80813 23.0071L0 29.3958L4.80813 35.7846L3.95422 43.6357L11.431 46.8499L14.7641 54.0604L22.9052 53.2369L29.53 57.8737L36.1548 53.2369L44.2959 54.0604L47.629 46.8499L55.1058 43.6357L54.2519 35.7846L59.06 29.3958ZM44.7839 44.1062L41.9688 50.1855L35.1151 49.4851L29.53 53.4034L23.9449 49.4851L17.0837 50.1782L14.2686 44.099L7.96475 41.3842L8.69854 34.7819L4.63547 29.3958L8.69854 24.0097L7.97226 17.393L14.2761 14.6782L17.0912 8.59894L23.9524 9.29211L29.53 5.38828L35.1151 9.30659L41.9763 8.61342L44.7914 14.6927L51.0953 17.4074L50.3615 24.0097L54.4245 29.3958L50.3615 34.7819L51.0802 41.3987L44.7839 44.1062Z" fill="url(#paint3_linear)" stroke="#FFC977"/>
<path d="M21.474 28.117L18.8203 30.6761L25.7773 37.3852L38.3643 25.2466L35.7107 22.6875L25.7773 32.267L21.474 28.117Z" fill="url(#paint4_linear)" stroke="#FFC977"/>
<defs>
<linearGradient id="paint0_linear" x1="37.872" y1="12.6992" x2="37.872" y2="17.6003" gradientUnits="userSpaceOnUse">
<stop stop-color="#C97629"/>
<stop offset="1" stop-color="#FF9801"/>
</linearGradient>
<linearGradient id="paint1_linear" x1="43.3246" y1="17.3359" x2="43.3246" y2="22.3655" gradientUnits="userSpaceOnUse">
<stop stop-color="#C97629"/>
<stop offset="1" stop-color="#FF9801"/>
</linearGradient>
<linearGradient id="paint2_linear" x1="29.555" y1="11.2969" x2="29.555" y2="47.4539" gradientUnits="userSpaceOnUse">
<stop stop-color="#C97629"/>
<stop offset="1" stop-color="#FF9801"/>
</linearGradient>
<linearGradient id="paint3_linear" x1="29.53" y1="0.917969" x2="29.53" y2="57.8737" gradientUnits="userSpaceOnUse">
<stop stop-color="#C97629"/>
<stop offset="1" stop-color="#FF9801"/>
</linearGradient>
<linearGradient id="paint4_linear" x1="28.5923" y1="22.6875" x2="28.5923" y2="37.3852" gradientUnits="userSpaceOnUse">
<stop stop-color="#C97629"/>
<stop offset="1" stop-color="#FF9801"/>
</linearGradient>
</defs>
</svg>