<svg width="10" height="19" viewBox="0 0 10 19" fill="none" xmlns="http://www.w3.org/2000/svg">
<path d="M0.833457 14.3079L0.833462 14.3079L4.18672 17.6774C4.18919 17.6799 4.19152 17.6823 4.19369 17.6844C4.63917 18.1262 5.36025 18.1275 5.80702 17.6837C5.80798 17.6828 5.80896 17.6818 5.80997 17.6808L5.81057 17.6802M0.833457 14.3079L5.80995 17.6808C5.81015 17.6806 5.81036 17.6804 5.81057 17.6802M0.833457 14.3079C0.387377 13.8597 0.38903 13.1346 0.837347 12.6884L1.18784 13.0406L0.837347 12.6884C1.28562 12.2423 2.01069 12.244 2.45684 12.6923L2.45686 12.6923L3.85484 14.0971L3.85484 1.64516C3.85484 1.0127 4.36753 0.5 5 0.5C5.63247 0.5 6.14516 1.0127 6.14516 1.64516L6.14516 14.0971L7.54314 12.6923L7.54316 12.6923C7.98931 12.244 8.71436 12.2423 9.16263 12.6884L0.833457 14.3079ZM5.81057 17.6802L5.8117 17.6791L5.81057 17.6802ZM4.21371 17.7029C4.21402 17.7031 4.21396 17.7031 4.21372 17.7029C4.21364 17.7028 4.21354 17.7027 4.21342 17.7026L4.21371 17.7029Z" fill="#FF2E2E" stroke="#FF2E2E"/>
</svg>
