<svg width="11" height="19" viewBox="0 0 11 19" fill="none" xmlns="http://www.w3.org/2000/svg">
<path d="M1.27096 4.50458L1.27096 4.50457L4.62422 1.13506C4.62669 1.13255 4.62902 1.13024 4.63119 1.12813C5.07667 0.686316 5.79775 0.684999 6.24452 1.1288C6.24548 1.12974 6.24646 1.13071 6.24747 1.13171L6.24807 1.13234M1.27096 4.50458L6.24745 1.13173C6.24765 1.13194 6.24786 1.13214 6.24807 1.13234M1.27096 4.50458C0.824877 4.95283 0.82653 5.67788 1.27485 6.12408L1.62534 5.77192L1.27485 6.12408C1.72312 6.57023 2.44819 6.56851 2.89434 6.12024L2.89436 6.12022L4.29234 4.71544L4.29234 17.1673C4.29234 17.7998 4.80503 18.3125 5.4375 18.3125C6.06997 18.3125 6.58266 17.7998 6.58266 17.1673L6.58266 4.71544L7.98064 6.12019L7.98066 6.12021C8.42681 6.56848 9.15186 6.5702 9.60013 6.12407L1.27096 4.50458ZM6.24807 1.13234L6.2492 1.13343L6.24807 1.13234ZM4.65121 1.10963C4.65152 1.10936 4.65146 1.10941 4.65122 1.10962C4.65114 1.10969 4.65104 1.10978 4.65092 1.10988L4.65121 1.10963Z" fill="#2BC155" stroke="#2BC155"/>
</svg>
