<svg width="15" height="13" viewBox="0 0 15 13" fill="none" xmlns="http://www.w3.org/2000/svg">
<path d="M7.46212 0C3.79795 0 0.827637 2.9101 0.827637 6.5C0.827637 10.0899 3.79795 13 7.46212 13C11.1263 13 14.0966 10.0899 14.0966 6.5C14.0966 2.9101 11.1263 0 7.46212 0ZM7.46212 11.7812C4.48959 11.7812 2.0716 9.412 2.0716 6.5C2.0716 3.588 4.48959 1.21875 7.46212 1.21875C10.4346 1.21875 12.8526 3.58773 12.8526 6.5C12.8526 9.41227 10.4344 11.7812 7.46212 11.7812Z" fill="#F7931A"/>
<path d="M7.80463 6.71097H6.93357V7.97874H7.80463C7.98044 7.97874 8.14354 7.90887 8.25798 7.7916C8.37768 7.6792 8.449 7.51968 8.449 7.34228C8.44928 6.99535 8.15874 6.71097 7.80463 6.71097Z" fill="#F7931A"/>
<path d="M7.46212 1.76041C4.7945 1.76041 2.62448 3.88645 2.62448 6.49999C2.62448 9.11353 4.7945 11.2396 7.46212 11.2396C10.1297 11.2396 12.2998 9.11326 12.2998 6.49999C12.2998 3.88672 10.1295 1.76041 7.46212 1.76041ZM8.44651 8.69483H7.87594V9.57341H7.27746V8.69483H6.94878V9.57341H6.34753V8.69483H5.29043V8.14341H5.87371V4.83924H5.29043V4.28783H6.34753V3.42685H6.94878V4.28783H7.27746V3.42685H7.87594V4.28783H8.39565C8.6859 4.28783 8.9535 4.4051 9.14451 4.59224C9.33553 4.77939 9.45523 5.04155 9.45523 5.32593C9.45523 5.88249 9.00685 6.33668 8.44651 6.3616C9.1036 6.3616 9.63353 6.88566 9.63353 7.52943C9.63353 8.17076 9.10388 8.69483 8.44651 8.69483Z" fill="#F7931A"/>
<path d="M8.18943 5.93233C8.29392 5.82995 8.3575 5.69264 8.3575 5.53799C8.3575 5.23114 8.1029 4.98143 7.78942 4.98143H6.93357V6.09699H7.78942C7.94478 6.09699 8.08742 6.03199 8.18943 5.93233Z" fill="#F7931A"/>
</svg>
