<svg width="60" height="60" viewBox="0 0 1161 1161" fill="none" xmlns="http://www.w3.org/2000/svg">
    <path d="M1161 580.5C1161 259.899 901.101 0 580.5 0C259.899 0 0 259.899 0 580.5C0 901.101 259.899 1161 580.5 1161C901.101 1161 1161 901.101 1161 580.5Z" fill="#03254C"/>
    <path d="M182.797 809.158L454.155 338.452L502.523 419.058L357.42 672.735L649.975 598.04L477.234 300.232L568.579 141.682L856.003 633.287L182.797 809.158Z" fill="#FFAD4F"/>
    <path d="M153.828 896.33L864.986 653.354L1006.39 896.278L153.828 896.33Z" fill="black"/>
    <path opacity="0.5" d="M153.828 896.33L864.986 653.354L1006.39 896.278L153.828 896.33Z" fill="#FFAD4F"/>
</svg>
