<svg width="209" height="50" viewBox="0 0 1723 407" fill="none" xmlns="http://www.w3.org/2000/svg">
    <path d="M15.774 360L163.606 106.127L189.956 149.602L110.906 286.421L270.285 246.135L176.178 85.5133L225.942 0L382.526 265.145L15.774 360Z" fill="#FFAD4F"/>
    <path d="M0 407L387.427 275.952L464.462 406.972L0 407Z" fill="black"/>
    <path opacity="0.5" d="M0 407L387.427 275.952L464.462 406.972L0 407Z" fill="#FFAD4F"/>
    <path d="M660.018 72.4576C671.608 72.4204 682.738 76.9453 690.96 85.0369C699.182 93.1283 703.823 104.124 703.863 115.606V295.862H662.211V220.763H519.724V295.844H478.393V115.606C478.381 109.938 479.498 104.325 481.681 99.0859C483.865 93.8481 487.071 89.0886 491.116 85.0812C495.161 81.0738 499.965 77.8974 505.252 75.7343C510.54 73.5712 516.206 72.464 521.927 72.4763L660.018 72.4576ZM662.211 179.806V115.606C662.218 115.319 662.166 115.033 662.058 114.767C661.95 114.501 661.789 114.259 661.583 114.055C661.378 113.852 661.135 113.693 660.865 113.585C660.596 113.479 660.308 113.427 660.018 113.434H521.917C521.627 113.427 521.339 113.479 521.07 113.585C520.802 113.693 520.557 113.852 520.352 114.055C520.148 114.259 519.986 114.501 519.878 114.767C519.771 115.033 519.718 115.319 519.724 115.606V179.834L662.211 179.806Z" fill="#FFAD4F"/>
    <path d="M923.393 72.4574H965.054V295.844H919.958L780.916 132.024V295.844H739.575V72.4574H784.67L923.393 236.277V72.4574Z" fill="#FFAD4F"/>
    <path d="M1183.96 72.4574H1225.61V295.844H1180.51L1041.47 132.024V295.844H1000.13V72.4574H1045.22L1183.96 236.277V72.4574Z" fill="#FFAD4F"/>
    <path d="M1468.63 113.415H1302.96V163.667H1436.37V204.624H1302.96V254.886H1468.63V295.844H1261.31V72.4574H1468.63V113.415Z" fill="#FFAD4F"/>
    <path d="M1722.96 72.4574V83.319L1637.16 184.151L1722.96 284.991V295.853H1677.51L1610.18 216.735C1587.94 242.841 1564.77 269.785 1542.84 295.853H1497.44V284.991L1582.93 184.16L1497.44 83.3284V72.4574H1542.84L1610.18 151.575C1632.41 125.47 1655.58 98.5253 1677.51 72.4574H1722.96Z" fill="#FFAD4F"/>
</svg>