<svg width="60" height="60" viewBox="0 0 60 60" fill="none" xmlns="http://www.w3.org/2000/svg">
<path d="M60 30C60 13.4315 46.5685 0 30 0C13.4315 0 0 13.4315 0 30C0 46.5685 13.4315 60 30 60C46.5685 60 60 46.5685 60 30Z" fill="#03254C"/>
<path d="M9.49805 39.4949L23.5218 15.169L26.0214 19.3347L18.5225 32.4446L33.6416 28.5844L24.7144 13.1938L29.4351 5L44.2891 30.4059L9.49805 39.4949Z" fill="#FFAD4F"/>
<path d="M8 43.9983L44.7523 31.4414L52.0601 43.9956L8 43.9983Z" fill="black"/>
<path opacity="0.5" d="M8 43.9983L44.7523 31.4414L52.0601 43.9956L8 43.9983Z" fill="#FFAD4F"/>
</svg>
